<svg width="562" height="385" xmlns="http://www.w3.org/2000/svg"><defs><filter x="-50%" y="-50%" width="200%" height="200%" filterUnits="objectBoundingBox" id="a"><feGaussianBlur stdDeviation="2" in="SourceGraphic" result="blur"/></filter><filter x="-50%" y="-50%" width="200%" height="200%" filterUnits="objectBoundingBox" id="b"><feGaussianBlur stdDeviation="2" in="SourceGraphic" result="blur"/></filter></defs><g fill="none" fill-rule="evenodd"><path d="M406 301s-2-12-26-16-42 2-42 8 18 12 38 12 30-4 30-4z" fill="#D8D8D8" filter="url(#a)"/><path d="M218 287s-21-10-51-10-55 9-55 12 21 10 49 10 57-12 57-12z" fill="#D8D8D8" filter="url(#b)"/><path d="M103.027 263.928s23.508 28.547 61.976 26.508c38.468-2.039 89.758-12.234 89.758-73.406 0-61.172-8.548-120.305-79.073-118.266-70.524 2.039-102.58 65.25-102.58 99.914s29.919 65.25 29.919 65.25z" fill="#CD9C71"/><path d="M104.544 229.411s-1.15 0-1.724 1.644c-.575 1.645 0 2.193 1.724 1.645 1.725-.548 2.875-2.74 2.3-3.289-.575-.548-2.3 0-2.3 0zM139.615 216.647s-.755 0-1.132 1.08c-.377 1.079 0 1.439 1.132 1.079 1.133-.36 1.888-1.8 1.51-2.16-.377-.36-1.51 0-1.51 0zM237.426 223.735s.02 1.15 1.674 1.696 1.934-1.164 1.356-2.879c-.578-1.715-2.532-1.7-3.07-1.116-.538.585.04 2.3.04 2.3z" fill="#4D3916"/><path d="M136.214 136.477s.02 1.15 1.675 1.696c1.653.546 1.934-1.164 1.355-2.879-.578-1.715-2.532-1.7-3.07-1.116-.538.584.04 2.3.04 2.3zM203.51 122.641s.02 1.15 1.674 1.696 1.934-1.164 1.356-2.879c-.578-1.715-2.532-1.7-3.07-1.116-.538.584.04 2.3.04 2.3z" fill="#665634"/><path d="M205.617 214.227s-1.063.957-.225 2.956c.837 2 1.825 2.028 2.964.085 1.138-1.943.376-4.928-.612-4.956-.988-.028-2.127 1.915-2.127 1.915z" fill="#4D3916"/><path d="M452.562 226.453s-25.645 71.367-61.976 71.367c-36.33 0-70.525-28.546-68.387-61.172 2.137-32.625 17.096-59.132 19.234-75.445 2.137-16.313 12.822-75.446 66.25-69.328 53.427 6.117 64.113 42.82 61.976 85.64-12.823 22.43-17.097 48.938-17.097 48.938z" fill="#E5C1A1"/><path d="M392.616 268.152s.02 1.15 1.674 1.696 1.934-1.164 1.356-2.879c-.578-1.715-2.533-1.7-3.07-1.116-.538.584.04 2.3.04 2.3z" fill="#4D3916"/><path d="M408.988 208.562s.02 1.15 1.674 1.695c1.654.546 1.934-1.164 1.356-2.878-.578-1.715-2.532-1.7-3.07-1.116-.538.584.04 2.299.04 2.299zM362.739 172.996s.012.707 1.03 1.043c1.017.336 1.19-.716.834-1.771s-1.558-1.046-1.889-.687c-.33.36.025 1.415.025 1.415zM381.206 229.342s.02 1.15 1.674 1.695c1.654.546 1.934-1.164 1.356-2.878-.578-1.715-2.532-1.7-3.07-1.117-.538.585.04 2.3.04 2.3z" fill="#665634"/><path d="M344.664 228.504s-1.063.957-.226 2.956c.838 2 1.826 2.028 2.965.085 1.138-1.943.376-4.928-.612-4.956-.988-.028-2.127 1.915-2.127 1.915z" fill="#4D3916"/></g></svg>
