<svg width="562" height="385" xmlns="http://www.w3.org/2000/svg"><g fill="none" fill-rule="evenodd"><path d="M178.625 200.313h204.75c8.073 0 14.625 6.552 14.625 14.625v65.812c0 8.08-6.552 14.625-14.625 14.625h-204.75c-8.073 0-14.625-6.545-14.625-14.625v-65.813c0-8.073 6.552-14.625 14.625-14.625zM281 90.625c9.543 0 17.565 6.128 20.592 14.625h15.97C317.563 89.097 301.197 76 281 76c-20.19 0-36.563 13.097-36.563 29.25h15.971c3.027-8.497 11.056-14.625 20.592-14.625z" fill="#3B5998"/><path d="M229.813 105.25h102.375c24.219 0 43.875 19.649 43.875 43.875v146.25c0 8.08-6.552 14.625-14.625 14.625H200.563c-8.073 0-14.625-6.545-14.625-14.625v-146.25c0-24.226 19.64-43.875 43.875-43.875z" fill="#4990E2"/><g transform="translate(234.575 205.861)" fill="#BFD7F4"><ellipse cx="46.357" cy="41.067" rx="8.287" ry="8.308"/><path d="M46.593 26.235c10.723 0 20.91 1.516 28.66 4.19 8.64 2.982 13.923 7.402 13.923 10.859 0 3.677-5.703 8.385-14.942 11.454-7.33 2.434-17.13 3.76-27.64 3.76-11.042 0-20.953-1.3-28.198-3.783C9.54 49.68 4.01 44.933 4.01 41.284c0-3.467 5.084-7.827 13.538-10.782 7.753-2.71 18.189-4.267 29.045-4.267zm0-3.687c-11.246 0-22.087 1.618-30.253 4.472C6.566 30.436.336 35.78.336 41.284c0 5.687 6.69 11.431 16.872 14.92 7.676 2.63 17.971 3.981 29.385 3.981 10.878 0 21.059-1.378 28.795-3.947 10.587-3.517 17.463-9.192 17.463-14.954 0-5.523-6.433-10.904-16.404-14.345-8.157-2.816-18.744-4.391-29.854-4.391z"/><path d="M33.393 33.691c5.357-9.312 11.756-17.402 17.938-22.796C58.224 4.881 64.684 2.5 67.672 4.228c3.179 1.837 4.397 9.142 2.433 18.698-1.558 7.581-5.307 16.754-10.558 25.883-5.516 9.589-11.59 17.546-17.355 22.598-7.047 6.175-13.912 8.606-17.067 6.782-2.997-1.733-4.224-8.324-2.554-17.143 1.531-8.085 5.399-17.926 10.822-27.355zm-3.182-1.843c-5.619 9.768-9.636 19.991-11.25 28.51-1.93 10.195-.426 18.276 4.33 21.025 4.912 2.84 13.217-.1 21.318-7.2 6.107-5.351 12.418-13.618 18.12-23.531 5.434-9.447 9.33-18.978 10.975-26.981 2.25-10.951.781-19.76-4.197-22.638-4.77-2.758-12.633.14-20.587 7.08C42.412 13.791 35.76 22.2 30.21 31.848z"/><path d="M33.384 48.74c-5.372-9.303-9.167-18.9-10.74-26.964-1.755-8.99-.587-15.788 2.398-17.52 3.176-1.844 10.098.747 17.377 7.226 5.773 5.14 11.828 12.977 17.094 22.097 5.532 9.58 9.374 18.83 10.861 26.36 1.817 9.203.49 16.378-2.662 18.207-2.994 1.738-9.305-.488-16.093-6.343-6.222-5.369-12.795-13.643-18.235-23.063zm-3.179 1.849c5.635 9.758 12.463 18.353 19.019 24.01 7.845 6.767 15.578 9.495 20.328 6.739 4.909-2.85 6.516-11.533 4.426-22.116-1.575-7.978-5.567-17.588-11.286-27.491-5.45-9.439-11.74-17.582-17.835-23.007-8.339-7.423-16.682-10.545-21.655-7.66-4.767 2.767-6.19 11.045-4.164 21.421 1.657 8.489 5.601 18.464 11.167 28.104z"/></g><path d="M207.875 105.25h146.25c16.153 0 29.25 13.097 29.25 29.25v29.25c0 16.153-13.097 29.257-29.25 29.257h-146.25c-16.153 0-29.25-13.104-29.25-29.257V134.5c0-16.153 13.097-29.25 29.25-29.25z" fill="#3B5998"/><path d="M233.695 273.438c5.404 0 10.743-14.625 10.743-14.625V105.25H222.5v153.563s5.638 14.625 11.195 14.625zm83.868-14.625s5.637 14.625 11.195 14.625c5.404 0 10.742-14.625 10.742-14.625V105.25h-21.938v153.563z" fill="#EFC75E"/><path d="M215.188 244.188h36.562V222.25h-36.563v21.938zm95.062-21.938v21.938h36.563V222.25H310.25z" fill="#E4E7E7"/></g></svg>
