<svg width="562" height="385" xmlns="http://www.w3.org/2000/svg"><g fill="none" fill-rule="evenodd"><g transform="translate(126 37)"><path fill="#FCF3C5" d="M155.5 200.199l-11.334 110.154 4.826-110.63-27.252 107.33 20.882-108.75-42.588 102.219 36.493-104.55L79.51 290.9l51.327-98.121-70.232 85.614 65.066-89.602-81.948 74.476 77.42-79.174-91.92 61.75 88.122-67.057-99.93 47.709 96.946-53.513L8.55 205.632l103.705-38.826L2.816 183.702l108.253-23.313-110.732.782 110.494-7.303-109.666-15.35 110.38 8.863L5.281 116.228l107.913 24.84L12.601 94.774l103.146 40.288-92.782-60.447 96.182 54.876L36.155 56.18l87.166 68.296-71.433-84.614 76.293 80.259L69.83 26.008l63.794 90.512L89.596 14.914l49.936 98.836L110.768 6.816 145.78 111.87 132.893 1.888l19.344 109.032L155.5.233l3.263 110.687L178.107 1.888 165.219 111.87 200.232 6.816 171.468 113.75l49.936-98.836-44.027 101.606 63.794-90.512-58.352 94.113 76.293-80.26-71.433 84.615 87.166-68.296-82.992 73.311 96.182-54.876-92.782 60.447 103.146-40.288-100.594 46.294 107.913-24.84-106.262 31.153 110.38-8.863-109.667 15.35 110.494 7.303-110.732-.782 108.253 23.313-109.438-16.896 103.705 38.827-105.812-32.651 96.946 53.513-99.93-47.71 88.122 67.058-91.92-61.75 77.42 79.174-81.948-74.476 65.066 89.602-70.232-85.614L231.49 290.9l-57.017-94.927 36.493 104.549-42.588-102.218 20.882 108.748-27.252-107.33 4.826 110.63z"/><ellipse stroke="#BD6947" fill="#D6C0E8" cx="154.963" cy="154.821" rx="19.546" ry="19.529"/><path d="M154.963 119.448c25.29 0 49.319 3.563 67.596 9.85 20.38 7.009 32.841 17.398 32.841 25.523 0 8.644-13.452 19.71-35.244 26.923-17.287 5.723-40.402 8.84-65.193 8.84-26.043 0-49.418-3.056-66.508-8.893-20.888-7.133-33.93-18.292-33.93-26.87 0-8.149 11.99-18.397 31.931-25.344 18.285-6.368 42.9-10.03 68.507-10.03zm0-8.666c-26.526 0-52.095 3.802-71.358 10.512-23.052 8.03-37.746 20.59-37.746 33.527 0 13.368 15.78 26.87 39.796 35.071 18.103 6.183 42.387 9.358 69.308 9.358 25.656 0 49.669-3.238 67.917-9.279 24.968-8.265 41.186-21.605 41.186-35.15 0-12.982-15.17-25.63-38.689-33.719-19.24-6.617-44.211-10.32-70.414-10.32z" stroke="#BD6947" fill="#D6C0E8"/><path d="M124.12 137.249c12.634-21.889 27.726-40.905 42.307-53.583 16.26-14.137 31.495-19.733 38.544-15.672 7.497 4.32 10.37 21.488 5.738 43.951-3.674 17.82-12.518 39.382-24.903 60.838-13.01 22.54-27.337 41.243-40.934 53.118-16.62 14.516-32.813 20.23-40.255 15.942-7.068-4.072-9.963-19.566-6.024-40.294 3.612-19.006 12.735-42.138 25.527-64.3zm-7.506-4.333c-13.252 22.96-22.73 46.99-26.535 67.015-4.554 23.965-1.004 42.959 10.211 49.421 11.587 6.676 31.175-.236 50.282-16.923 14.405-12.58 29.29-32.012 42.74-55.314 12.817-22.205 22.006-44.608 25.885-63.42 5.307-25.74 1.843-46.444-9.9-53.21-11.251-6.483-29.794.329-48.556 16.642-15.35 13.347-31.036 33.11-44.127 55.79z" stroke="#BD6947" fill="#D6C0E8"/><path d="M124.15 172.835c-12.671-21.868-21.623-44.428-25.335-63.38-4.138-21.132-1.383-37.111 5.657-41.183 7.492-4.333 23.819 1.756 40.985 16.985 13.618 12.08 27.898 30.504 40.32 51.94 13.047 22.518 22.11 44.26 25.617 61.96 4.286 21.634 1.154 38.499-6.278 42.798-7.063 4.085-21.949-1.148-37.957-14.911-14.677-12.619-30.18-32.069-43.01-54.21zm-7.5 4.344c13.292 22.938 29.396 43.142 44.859 56.436 18.504 15.909 36.744 22.32 47.946 15.841 11.578-6.696 15.368-27.108 10.44-51.983-3.716-18.753-13.132-41.342-26.62-64.62-12.855-22.185-27.691-41.327-42.067-54.079-19.667-17.448-39.346-24.787-51.075-18.003-11.243 6.503-14.598 25.96-9.822 50.35 3.907 19.952 13.212 43.4 26.34 66.058z" stroke="#BD6947" fill="#D6C0E8"/></g><g transform="translate(409.625 56)"><path fill="#FCF3C5" d="M59.875 77.086l-4.364 42.415 1.858-42.598-10.493 41.327 8.04-41.873-16.398 39.358L52.57 75.46 30.615 112.01l19.763-37.782-27.042 32.966L48.39 72.693 16.835 101.37l29.81-30.485-35.393 23.777 33.932-25.82-38.479 18.37 37.33-20.606L3.292 79.178l39.931-14.95-42.139 6.506 41.683-8.977-42.637.301 42.545-2.812-42.227-5.91L42.95 56.75 2.034 44.753l41.552 9.565L4.852 36.493l39.716 15.512L8.843 28.73l37.034 21.13-31.956-28.228 33.564 26.297-27.506-32.58 29.377 30.903-22.469-36.238 24.564 34.852L34.5 5.743l19.228 38.056L42.65 2.625l13.482 40.45L51.17.727 58.62 42.71 59.875.09l1.256 42.62L68.58.727l-4.963 42.348L77.1 2.625 66.023 43.799 85.251 5.743 68.3 44.866l24.564-34.852-22.469 36.238L99.771 15.35l-27.506 32.58 33.564-26.297L73.873 49.86l37.034-21.13-35.725 23.275 39.716-15.512-38.734 17.825 41.552-9.565L76.8 56.75l42.502-3.413-42.227 5.91 42.545 2.812-42.637-.3 41.683 8.976-42.14-6.506 39.932 14.95-40.743-12.572 37.33 20.605-38.479-18.37 33.932 25.82-35.394-23.776 29.81 30.485L71.36 72.693l25.054 34.502-27.042-32.966 19.763 37.782L67.18 75.459l14.052 40.256-16.398-39.358 8.04 41.873-10.493-41.327 1.858 42.598z"/><ellipse stroke="#BD6947" fill="#D6C0E8" cx="59.668" cy="59.614" rx="7.526" ry="7.52"/><path d="M59.668 45.993c9.738 0 18.99 1.372 26.028 3.793 7.847 2.699 12.645 6.7 12.645 9.828 0 3.328-5.18 7.589-13.57 10.366-6.657 2.204-15.557 3.404-25.103 3.404-10.028 0-19.028-1.177-25.608-3.424-8.043-2.747-13.065-7.043-13.065-10.346 0-3.138 4.616-7.084 12.295-9.759 7.04-2.452 16.519-3.862 26.378-3.862zm0-3.337c-10.214 0-20.059 1.464-27.476 4.048-8.876 3.092-14.534 7.928-14.534 12.91 0 5.147 6.076 10.346 15.323 13.504 6.97 2.38 16.321 3.603 26.687 3.603 9.879 0 19.125-1.247 26.151-3.573 9.615-3.183 15.86-8.319 15.86-13.534 0-5-5.842-9.869-14.898-12.984-7.408-2.548-17.023-3.974-27.113-3.974z" stroke="#BD6947" fill="#D6C0E8"/><path d="M47.792 52.847c4.865-8.428 10.676-15.75 16.29-20.631 6.261-5.444 12.128-7.599 14.842-6.035 2.886 1.663 3.993 8.274 2.21 16.923-1.416 6.862-4.821 15.164-9.59 23.426-5.01 8.679-10.526 15.88-15.761 20.453-6.4 5.59-12.635 7.79-15.5 6.138-2.722-1.568-3.837-7.534-2.32-15.515 1.39-7.318 4.903-16.225 9.829-24.759zm-2.89-1.668C39.8 60.02 36.15 69.273 34.685 76.983c-1.754 9.228-.387 16.541 3.932 19.03 4.461 2.57 12.004-.091 19.36-6.517 5.547-4.844 11.279-12.326 16.457-21.298 4.936-8.55 8.474-17.176 9.967-24.42 2.044-9.911.71-17.883-3.811-20.488-4.333-2.496-11.473.126-18.697 6.408-5.91 5.139-11.95 12.749-16.99 21.481z" stroke="#BD6947" fill="#D6C0E8"/><path d="M47.803 66.55c-4.878-8.42-8.325-17.107-9.754-24.405-1.594-8.136-.533-14.29 2.178-15.857 2.885-1.668 9.171.676 15.781 6.54 5.244 4.652 10.742 11.746 15.525 20 5.024 8.67 8.514 17.042 9.864 23.857 1.65 8.33.444 14.824-2.417 16.48-2.72 1.572-8.452-.443-14.616-5.742-5.651-4.859-11.62-12.348-16.56-20.873zm-2.887 1.673c5.118 8.832 11.319 16.611 17.273 21.73 7.125 6.126 14.148 8.595 18.461 6.1 4.458-2.579 5.918-10.438 4.02-20.017-1.43-7.22-5.056-15.918-10.25-24.881-4.95-8.543-10.662-15.913-16.197-20.823-7.573-6.718-15.15-9.544-19.667-6.932-4.33 2.504-5.621 9.996-3.782 19.387 1.505 7.683 5.087 16.711 10.142 25.436z" stroke="#BD6947" fill="#D6C0E8"/></g><g transform="translate(79 246.688)"><path fill="#FCF3C5" d="M47.5 61.154l-3.462 33.648 1.474-33.793-8.324 32.785 6.378-33.219L30.557 91.8l11.147-31.936L24.288 88.86l15.678-29.973L18.513 85.04l19.875-27.37-25.032 22.75 23.649-24.186L8.927 75.097l26.918-20.484L5.32 69.186 34.934 52.84 2.612 62.814l31.678-11.86-33.43 5.16 33.068-7.12-33.825.238 33.752-2.23-33.5-4.69 33.718 2.708-32.46-9.516 32.964 7.587L3.85 28.951l31.508 12.306L7.015 22.792l29.38 16.763-25.351-22.394L37.67 38.023 15.85 12.176l23.305 24.517L21.33 7.944l19.487 27.649L27.37 4.556l15.253 30.19-8.786-32.664 10.695 32.09L40.594.578l5.91 33.305L47.5.072l.997 33.81L54.406.577l-3.937 33.596 10.695-32.09-8.786 32.664L67.63 4.556 54.183 35.593 73.67 7.944 55.845 36.693 79.15 12.176 57.33 38.023l26.626-20.862-25.351 22.394 29.38-16.763-28.342 18.465L91.151 28.95 60.423 43.091l32.964-7.587-32.46 9.516 33.717-2.707L61.144 47l33.753 2.231-33.825-.239 33.068 7.122-33.43-5.161 31.678 11.86-32.322-9.974L89.68 69.186 59.155 54.613l26.918 20.484-28.078-18.863 23.65 24.185-25.033-22.75 19.875 27.37-21.453-26.152L70.712 88.86 53.296 59.863l11.147 31.936-13.01-31.224 6.38 33.22-8.325-32.786 1.474 33.793z"/><ellipse stroke="#BD6947" fill="#D6C0E8" cx="47.336" cy="47.293" rx="5.971" ry="5.965"/><path d="M47.336 36.487c7.725 0 15.065 1.089 20.648 3.009 6.225 2.141 10.032 5.315 10.032 7.797 0 2.64-4.11 6.02-10.766 8.224-5.28 1.748-12.341 2.7-19.914 2.7-7.955 0-15.096-.934-20.316-2.716-6.38-2.18-10.364-5.588-10.364-8.208 0-2.49 3.662-5.62 9.753-7.742 5.586-1.946 13.105-3.064 20.927-3.064zm0-2.647c-8.103 0-15.913 1.162-21.797 3.211-7.042 2.453-11.53 6.29-11.53 10.242 0 4.083 4.82 8.208 12.156 10.713 5.53 1.888 12.947 2.858 21.17 2.858 7.838 0 15.173-.989 20.747-2.834 7.627-2.525 12.581-6.6 12.581-10.737 0-3.966-4.634-7.83-11.818-10.3-5.877-2.022-13.505-3.153-21.51-3.153z" stroke="#BD6947" stroke-width=".5" fill="#D6C0E8"/><path d="M37.914 41.925c3.86-6.686 8.47-12.495 12.924-16.368 4.967-4.318 9.62-6.028 11.774-4.787 2.29 1.32 3.167 6.564 1.753 13.425-1.123 5.444-3.824 12.03-7.608 18.584-3.974 6.886-8.35 12.599-12.504 16.226-5.077 4.434-10.023 6.18-12.296 4.87-2.159-1.244-3.044-5.977-1.84-12.309 1.103-5.805 3.89-12.871 7.797-19.641zM35.622 40.6c-4.049 7.014-6.943 14.354-8.106 20.471-1.391 7.32-.307 13.123 3.12 15.097 3.539 2.039 9.522-.072 15.359-5.17 4.4-3.843 8.947-9.779 13.055-16.896 3.915-6.783 6.722-13.627 7.907-19.373 1.622-7.863.563-14.187-3.024-16.254-3.437-1.98-9.101.1-14.832 5.084-4.689 4.077-9.48 10.114-13.48 17.041z" stroke="#BD6947" stroke-width=".5" fill="#D6C0E8"/><path d="M37.923 52.795c-3.87-6.68-6.605-13.571-7.738-19.36-1.264-6.455-.423-11.336 1.728-12.58 2.288-1.324 7.276.536 12.52 5.188 4.16 3.69 8.521 9.318 12.315 15.866 3.986 6.879 6.754 13.52 7.826 18.927 1.309 6.608.352 11.76-1.918 13.073-2.157 1.248-6.705-.35-11.595-4.555-4.483-3.854-9.219-9.796-13.138-16.559zm-2.29 1.327c4.06 7.007 8.98 13.179 13.703 17.24 5.652 4.86 11.223 6.818 14.645 4.838 3.537-2.045 4.695-8.28 3.19-15.879-1.135-5.728-4.012-12.628-8.132-19.739-3.927-6.777-8.459-12.624-12.85-16.52-6.008-5.329-12.02-7.57-15.602-5.499-3.434 1.987-4.46 7.93-3 15.38 1.194 6.095 4.036 13.258 8.046 20.18z" stroke="#BD6947" stroke-width=".5" fill="#D6C0E8"/></g><g transform="translate(409.625 246.688)"><path fill="#FCF3C5" d="M32.5 41.842l-2.369 23.023 1.009-23.122-5.696 22.432 4.365-22.729-8.902 21.364 7.628-21.851-11.917 19.84 10.727-20.508-14.678 17.894 13.599-18.727L9.138 55.024 25.32 38.476 6.108 51.382l18.418-14.015L3.64 47.338l20.262-11.184-22.115 6.824 21.675-8.115L.589 38.394l22.625-4.872-23.144.163 23.094-1.526L.244 28.95l23.07 1.852-22.21-6.511 22.554 5.192-21.024-9.676 21.558 8.42L4.8 15.595l20.102 11.47L7.556 11.741l18.218 14.274L10.844 8.33 26.79 25.106 14.594 5.436l13.334 18.917-9.202-21.236 10.437 20.657-6.012-22.35 7.318 21.957L27.775.395l4.043 22.788L32.5.049l.682 23.134L37.225.395 34.53 23.38 41.85 1.425l-6.012 22.35L46.274 3.116l-9.202 21.236L50.406 5.436 38.21 25.106 54.155 8.33l-14.93 17.685 18.219-14.274-17.346 15.322L60.2 15.594 40.808 28.229l21.558-8.42-21.024 9.676 22.554-5.192-22.21 6.511 23.07-1.852-22.92 3.208 23.094 1.526-23.144-.163 22.625 4.872-22.873-3.531 21.675 8.115-22.115-6.824L61.36 47.338l-20.886-9.971 18.418 14.015-19.211-12.906 16.18 16.548-17.127-15.566 13.6 18.727-14.68-17.894L48.383 60.8 36.465 40.96l7.628 21.851-8.902-21.364 4.365 22.729-5.696-22.432 1.009 23.122z"/><ellipse stroke="#BD6947" fill="#D6C0E8" cx="32.388" cy="32.358" rx="4.085" ry="4.082"/><path d="M32.388 24.965c5.286 0 10.308.745 14.128 2.059 4.259 1.465 6.864 3.636 6.864 5.334 0 1.807-2.812 4.12-7.367 5.627-3.613 1.196-8.444 1.848-13.625 1.848-5.443 0-10.329-.64-13.9-1.859-4.366-1.49-7.092-3.823-7.092-5.616 0-1.703 2.506-3.845 6.674-5.297 3.821-1.33 8.966-2.096 14.318-2.096zm0-1.811c-5.544 0-10.888.794-14.914 2.197-4.818 1.678-7.89 4.303-7.89 7.007 0 2.794 3.299 5.616 8.318 7.33 3.784 1.292 8.86 1.956 14.486 1.956 5.362 0 10.38-.677 14.195-1.94 5.218-1.727 8.608-4.515 8.608-7.346 0-2.713-3.171-5.357-8.086-7.047-4.022-1.383-9.24-2.157-14.717-2.157z" stroke="#BD6947" stroke-width=".5" fill="#D6C0E8"/><path d="M25.941 28.685c2.641-4.574 5.795-8.549 8.843-11.198 3.398-2.955 6.582-4.125 8.056-3.276 1.566.903 2.167 4.491 1.199 9.186-.768 3.724-2.617 8.23-5.205 12.715-2.72 4.711-5.713 8.62-8.555 11.102-3.474 3.034-6.858 4.228-8.414 3.332-1.477-.851-2.082-4.09-1.259-8.422.755-3.972 2.662-8.807 5.335-13.439zm-1.568-.905c-2.77 4.799-4.75 9.821-5.546 14.006-.952 5.009-.21 8.979 2.134 10.33 2.422 1.395 6.516-.05 10.51-3.538 3.01-2.629 6.12-6.69 8.932-11.56 2.679-4.641 4.6-9.324 5.41-13.255 1.11-5.38.385-9.707-2.07-11.121-2.35-1.355-6.226.068-10.148 3.478-3.208 2.79-6.486 6.92-9.222 11.66z" stroke="#BD6947" stroke-width=".5" fill="#D6C0E8"/><path d="M25.948 36.123c-2.649-4.57-4.52-9.286-5.295-13.247-.865-4.416-.29-7.756 1.182-8.607 1.566-.906 4.978.367 8.566 3.55 2.846 2.525 5.83 6.375 8.427 10.856 2.727 4.706 4.621 9.25 5.354 12.95.896 4.52.241 8.046-1.312 8.944-1.476.854-4.587-.24-7.933-3.116-3.068-2.637-6.308-6.703-8.99-11.33zm-1.568.908c2.778 4.794 6.144 9.017 9.376 11.795 3.867 3.325 7.68 4.665 10.02 3.311 2.42-1.4 3.213-5.666 2.183-10.865-.777-3.919-2.745-8.64-5.564-13.505-2.687-4.637-5.788-8.638-8.792-11.303-4.11-3.647-8.224-5.18-10.675-3.763-2.35 1.36-3.051 5.426-2.053 10.523.817 4.17 2.762 9.072 5.505 13.807z" stroke="#BD6947" stroke-width=".5" fill="#D6C0E8"/></g><g transform="translate(94 56)"><path fill="#FCF3C5" d="M32.5 41.842l-2.369 23.023 1.009-23.122-5.696 22.432 4.365-22.729-8.902 21.364 7.628-21.851-11.917 19.84 10.727-20.508-14.678 17.894 13.599-18.727L9.138 55.024 25.32 38.476 6.108 51.382l18.418-14.015L3.64 47.338l20.262-11.184-22.115 6.824 21.675-8.115L.589 38.394l22.625-4.872-23.144.163 23.094-1.526L.244 28.95l23.07 1.852-22.21-6.511 22.554 5.192-21.024-9.676 21.558 8.42L4.8 15.595l20.102 11.47L7.556 11.741l18.218 14.274L10.844 8.33 26.79 25.106 14.594 5.436l13.334 18.917-9.202-21.236 10.437 20.657-6.012-22.35 7.318 21.957L27.775.395l4.043 22.788L32.5.049l.682 23.134L37.225.395 34.53 23.38 41.85 1.425l-6.012 22.35L46.274 3.116l-9.202 21.236L50.406 5.436 38.21 25.106 54.155 8.33l-14.93 17.685 18.219-14.274-17.346 15.322L60.2 15.594 40.808 28.229l21.558-8.42-21.024 9.676 22.554-5.192-22.21 6.511 23.07-1.852-22.92 3.208 23.094 1.526-23.144-.163 22.625 4.872-22.873-3.531 21.675 8.115-22.115-6.824L61.36 47.338l-20.886-9.971 18.418 14.015-19.211-12.906 16.18 16.548-17.127-15.566 13.6 18.727-14.68-17.894L48.383 60.8 36.465 40.96l7.628 21.851-8.902-21.364 4.365 22.729-5.696-22.432 1.009 23.122z"/><ellipse stroke="#BD6947" fill="#D6C0E8" cx="32.388" cy="32.358" rx="4.085" ry="4.082"/><path d="M32.388 24.965c5.286 0 10.308.745 14.128 2.059 4.259 1.465 6.864 3.636 6.864 5.334 0 1.807-2.812 4.12-7.367 5.627-3.613 1.196-8.444 1.848-13.625 1.848-5.443 0-10.329-.64-13.9-1.859-4.366-1.49-7.092-3.823-7.092-5.616 0-1.703 2.506-3.845 6.674-5.297 3.821-1.33 8.966-2.096 14.318-2.096zm0-1.811c-5.544 0-10.888.794-14.914 2.197-4.818 1.678-7.89 4.303-7.89 7.007 0 2.794 3.299 5.616 8.318 7.33 3.784 1.292 8.86 1.956 14.486 1.956 5.362 0 10.38-.677 14.195-1.94 5.218-1.727 8.608-4.515 8.608-7.346 0-2.713-3.171-5.357-8.086-7.047-4.022-1.383-9.24-2.157-14.717-2.157z" stroke="#BD6947" stroke-width=".5" fill="#D6C0E8"/><path d="M25.941 28.685c2.641-4.574 5.795-8.549 8.843-11.198 3.398-2.955 6.582-4.125 8.056-3.276 1.566.903 2.167 4.491 1.199 9.186-.768 3.724-2.617 8.23-5.205 12.715-2.72 4.711-5.713 8.62-8.555 11.102-3.474 3.034-6.858 4.228-8.414 3.332-1.477-.851-2.082-4.09-1.259-8.422.755-3.972 2.662-8.807 5.335-13.439zm-1.568-.905c-2.77 4.799-4.75 9.821-5.546 14.006-.952 5.009-.21 8.979 2.134 10.33 2.422 1.395 6.516-.05 10.51-3.538 3.01-2.629 6.12-6.69 8.932-11.56 2.679-4.641 4.6-9.324 5.41-13.255 1.11-5.38.385-9.707-2.07-11.121-2.35-1.355-6.226.068-10.148 3.478-3.208 2.79-6.486 6.92-9.222 11.66z" stroke="#BD6947" stroke-width=".5" fill="#D6C0E8"/><path d="M25.948 36.123c-2.649-4.57-4.52-9.286-5.295-13.247-.865-4.416-.29-7.756 1.182-8.607 1.566-.906 4.978.367 8.566 3.55 2.846 2.525 5.83 6.375 8.427 10.856 2.727 4.706 4.621 9.25 5.354 12.95.896 4.52.241 8.046-1.312 8.944-1.476.854-4.587-.24-7.933-3.116-3.068-2.637-6.308-6.703-8.99-11.33zm-1.568.908c2.778 4.794 6.144 9.017 9.376 11.795 3.867 3.325 7.68 4.665 10.02 3.311 2.42-1.4 3.213-5.666 2.183-10.865-.777-3.919-2.745-8.64-5.564-13.505-2.687-4.637-5.788-8.638-8.792-11.303-4.11-3.647-8.224-5.18-10.675-3.763-2.35 1.36-3.051 5.426-2.053 10.523.817 4.17 2.762 9.072 5.505 13.807z" stroke="#BD6947" stroke-width=".5" fill="#D6C0E8"/></g></g></svg>
